<svg id="icons" xmlns="http://www.w3.org/2000/svg" viewBox="0 0 48 48"><title>sim-card</title><g id="sim-card"><path d="M40,46H8a1,1,0,0,1-1-1V3A1,1,0,0,1,8,2H31.88a1,1,0,0,1,.77.37l8.12,9.87a1,1,0,0,1,.23.64V45A1,1,0,0,1,40,46Z" fill="#fff"/><path d="M40,46H8a1,1,0,0,1-1-1V3A1,1,0,0,1,8,2H31.88a1,1,0,0,1,.77.37l8.12,9.87a1,1,0,0,1,.23.64V45A1,1,0,0,1,40,46Z" fill="none" stroke="#423e5e" stroke-linecap="round" stroke-linejoin="round" stroke-width="2"/><rect x="12" y="17" width="24" height="24" rx="2" ry="2" fill="#ffd259"/><rect x="12" y="17" width="24" height="24" rx="2" ry="2" fill="none" stroke="#423e5e" stroke-linecap="round" stroke-linejoin="round" stroke-width="2"/><line x1="18" y1="40" x2="18" y2="18" fill="none" stroke="#423e5e" stroke-linecap="round" stroke-linejoin="round" stroke-width="2"/><line x1="24" y1="26" x2="24" y2="18" fill="none" stroke="#423e5e" stroke-linecap="round" stroke-linejoin="round" stroke-width="2"/><line x1="30" y1="26" x2="30" y2="18" fill="none" stroke="#423e5e" stroke-linecap="round" stroke-linejoin="round" stroke-width="2"/><line x1="18" y1="26" x2="35" y2="26" fill="none" stroke="#423e5e" stroke-linecap="round" stroke-linejoin="round" stroke-width="2"/><polyline points="18 32 24 32 30 32 30 41" fill="none" stroke="#423e5e" stroke-linecap="round" stroke-linejoin="round" stroke-width="2"/><line x1="24" y1="41" x2="24" y2="32" fill="none" stroke="#423e5e" stroke-linecap="round" stroke-linejoin="round" stroke-width="2"/><line x1="13" y1="12" x2="35" y2="12" fill="none" stroke="#423e5e" stroke-linejoin="round" stroke-width="2"/></g></svg>