<svg xmlns="http://www.w3.org/2000/svg" viewBox="0 0 64 64"><defs><style>.cls-1{isolation:isolate;}.cls-2{mix-blend-mode:multiply;}.cls-3{fill:#ea6e60;}.cls-4{fill:#f5f1e0;}.cls-5{fill:#f4cd51;}.cls-6{fill:none;stroke:#3b342f;stroke-linecap:round;stroke-linejoin:round;stroke-width:2px;}</style></defs><title>database</title><g class="cls-1"><g id="icons" class="cls-2"><g id="_Group_" data-name="&lt;Group&gt;"><circle class="cls-3" cx="48" cy="54" r="2"/><circle class="cls-3" cx="48" cy="35" r="2"/><path class="cls-4" d="M54,45.5v12c0,3-9.85,5.5-22,5.5s-22-2.46-22-5.5v-12a1.33,1.33,0,0,1,0-.28,16.45,16.45,0,0,0,2,1C15.82,47.79,22,49,32,49s16.18-1.21,20-2.81a16.45,16.45,0,0,0,2-1A1.33,1.33,0,0,1,54,45.5ZM50,54a2,2,0,1,0-2,2A2,2,0,0,0,50,54Z"/><path class="cls-4" d="M54,26.5v12c0,.82-.72,1.6-2,2.29C48.52,42.69,40.87,44,32,44s-16.52-1.31-20-3.21c-1.28-.69-2-1.47-2-2.29v-12a1.27,1.27,0,0,1,0-.28,15.07,15.07,0,0,0,2,1C15.82,28.8,22,30,32,30s16.18-1.2,20-2.81a15.07,15.07,0,0,0,2-1A1.27,1.27,0,0,1,54,26.5ZM50,35a2,2,0,1,0-2,2A2,2,0,0,0,50,35Z"/><path class="cls-4" d="M54,6.5v13c0,.82-.72,1.6-2,2.29C48.52,23.69,40.87,25,32,25s-16.52-1.31-20-3.21c-1.28-.69-2-1.47-2-2.29V6.5c0,3,9.85,5.5,22,5.5S54,9.54,54,6.5ZM50,17a2,2,0,1,0-2,2A2,2,0,0,0,50,17Z"/><path class="cls-5" d="M52,40.79v5.4C48.18,47.79,42,49,32,49s-16.18-1.21-20-2.81v-5.4C15.48,42.69,23.13,44,32,44S48.52,42.69,52,40.79Z"/><path class="cls-5" d="M52,21.79v5.4C48.18,28.8,42,30,32,30s-16.18-1.2-20-2.81v-5.4C15.48,23.69,23.13,25,32,25S48.52,23.69,52,21.79Z"/><circle class="cls-3" cx="48" cy="17" r="2"/><ellipse class="cls-5" cx="32" cy="6.5" rx="22" ry="5.5"/><path class="cls-6" d="M52,27.19a15.07,15.07,0,0,0,2-1,1.27,1.27,0,0,1,0,.28v12c0,.82-.72,1.6-2,2.29C48.52,42.69,40.87,44,32,44s-16.52-1.31-20-3.21c-1.28-.69-2-1.47-2-2.29v-12a1.27,1.27,0,0,1,0-.28,15.07,15.07,0,0,0,2,1C15.82,28.8,22,30,32,30S48.18,28.8,52,27.19Z"/><path class="cls-6" d="M54,6.5c0,3-9.85,5.5-22,5.5S10,9.54,10,6.5"/><path class="cls-6" d="M54,6.5c0-3-9.85-5.5-22-5.5S10,3.46,10,6.5v13c0,.82.72,1.6,2,2.29C15.48,23.69,23.13,25,32,25s16.52-1.31,20-3.21c1.28-.69,2-1.47,2-2.29Z"/><path class="cls-6" d="M52,46.19C48.18,47.79,42,49,32,49s-16.18-1.21-20-2.81a16.45,16.45,0,0,1-2-1,1.33,1.33,0,0,0,0,.28v12c0,3,9.85,5.5,22,5.5s22-2.46,22-5.5v-12a1.33,1.33,0,0,0,0-.28A16.45,16.45,0,0,1,52,46.19Z"/><circle class="cls-6" cx="48" cy="17" r="2"/><circle class="cls-6" cx="48" cy="35" r="2"/><circle class="cls-6" cx="48" cy="54" r="2"/><line class="cls-6" x1="52" y1="46.19" x2="52" y2="40.79"/><line class="cls-6" x1="52" y1="27.19" x2="52" y2="21.79"/><line class="cls-6" x1="12" y1="27.19" x2="12" y2="21.79"/><line class="cls-6" x1="12" y1="46.19" x2="12" y2="40.79"/></g></g></g></svg>