<svg xmlns="http://www.w3.org/2000/svg" viewBox="0 0 64 64"><defs><style>.cls-1{isolation:isolate;}.cls-2{mix-blend-mode:multiply;}.cls-3{fill:#f5f1e0;}.cls-4{fill:#ea6e60;}.cls-5{fill:#f4cd51;}.cls-6{fill:none;stroke:#2a2433;stroke-linecap:round;stroke-linejoin:round;stroke-width:2px;}</style></defs><title>server-sync</title><g class="cls-1"><g id="icons" class="cls-2"><g id="_Group_" data-name="&lt;Group&gt;"><path class="cls-3" d="M59,44V54a2,2,0,0,1-2,2H28l-1.54-4.63A2,2,0,0,0,24.56,50H15.44a2,2,0,0,0-1.9,1.37L12,56H7a2,2,0,0,1-2-2V44a2,2,0,0,1,2-2H57A2,2,0,0,1,59,44Zm-5,5a2,2,0,1,0-2,2A2,2,0,0,0,54,49Z"/><polygon class="cls-4" points="55 56 55 60 9 60 9 56 12 56 28 56 55 56"/><circle class="cls-4" cx="52" cy="49" r="2"/><polygon class="cls-5" points="51 25 42 36 33 25 39 25 42 4 45 25 51 25"/><polygon class="cls-4" points="22 4 31 15 25 15 22 36 19 15 13 15 22 4"/><path class="cls-5" d="M26.46,51.37,28,56H12l1.54-4.63A2,2,0,0,1,15.44,50h9.12A2,2,0,0,1,26.46,51.37Z"/><path class="cls-6" d="M9,56H7a2,2,0,0,1-2-2V44a2,2,0,0,1,2-2H57a2,2,0,0,1,2,2V54a2,2,0,0,1-2,2H55"/><polyline class="cls-6" points="28 56 55 56 55 60 9 60 9 56 12 56"/><circle class="cls-6" cx="52" cy="49" r="2"/><path class="cls-6" d="M28,56l-1.54-4.63A2,2,0,0,0,24.56,50H15.44a2,2,0,0,0-1.9,1.37L12,56Z"/><line class="cls-6" x1="45" y1="49" x2="41" y2="49"/><polygon class="cls-6" points="22 4 13 15 19 15 22 36 25 15 31 15 22 4"/><polygon class="cls-6" points="42 36 33 25 39 25 42 4 45 25 51 25 42 36"/></g></g></g></svg>